<svg width="17" height="16" viewBox="0 0 17 16" fill="none" xmlns="http://www.w3.org/2000/svg">
<path fill-rule="evenodd" clip-rule="evenodd" d="M1.8335 8.00001C1.8335 4.32001 4.82016 1.33334 8.50016 1.33334C12.1802 1.33334 15.1668 4.32001 15.1668 8.00001C15.1668 11.68 12.1802 14.6667 8.50016 14.6667C4.82016 14.6667 1.8335 11.68 1.8335 8.00001ZM7.8335 7.33334V11.3333H9.16683V7.33334H7.8335ZM7.8335 4.66668V6.00001H9.16683V4.66668H7.8335ZM8.50016 13.3333C11.4457 13.3333 13.8335 10.9455 13.8335 8.00001C13.8335 5.05449 11.4457 2.66668 8.50016 2.66668C5.55464 2.66668 3.16683 5.05449 3.16683 8.00001C3.16683 10.9455 5.55464 13.3333 8.50016 13.3333Z" fill="white" fill-opacity="0.3"/>
</svg>
