<svg width="16" height="16" viewBox="0 0 16 16" fill="none" xmlns="http://www.w3.org/2000/svg">
<path fill-rule="evenodd" clip-rule="evenodd" d="M1.3335 7.99998C1.3335 4.31998 4.32016 1.33331 8.00016 1.33331C11.6802 1.33331 14.6668 4.31998 14.6668 7.99998C14.6668 11.68 11.6802 14.6666 8.00016 14.6666C4.32016 14.6666 1.3335 11.68 1.3335 7.99998ZM7.3335 7.33331V11.3333H8.66683V7.33331H7.3335ZM7.3335 4.66665V5.99998H8.66683V4.66665H7.3335ZM8.00016 13.3333C10.9457 13.3333 13.3335 10.9455 13.3335 7.99998C13.3335 5.05446 10.9457 2.66665 8.00016 2.66665C5.05464 2.66665 2.66683 5.05446 2.66683 7.99998C2.66683 10.9455 5.05464 13.3333 8.00016 13.3333Z" fill="white" fill-opacity="0.3"/>
</svg>
