<svg width="21" height="20" viewBox="0 0 21 20" fill="none" xmlns="http://www.w3.org/2000/svg">
<circle cx="10.5" cy="10" r="10" fill="black"/>
<path d="M9.37226 8.78193V8.33485C9.21594 8.31028 9.05805 8.29681 8.89979 8.29456C7.36764 8.29132 6.0112 9.27701 5.55109 10.7278C5.09099 12.1787 5.63409 13.758 6.8917 14.6267C6.43053 14.1368 6.12207 13.5247 6.00355 12.8645C5.88503 12.2044 5.96152 11.5242 6.22379 10.9062C6.48606 10.2883 6.92289 9.75885 7.48155 9.38191C8.04022 9.00496 8.69684 8.79661 9.37216 8.78198L9.37226 8.78193Z" fill="#25F4EE"/>
<path d="M9.45748 13.8462C10.3141 13.8451 11.0182 13.1751 11.0558 12.3255V4.74373H12.4509C12.4225 4.58531 12.4089 4.42459 12.4104 4.26367L10.502 4.26367V11.8381C10.4703 12.6921 9.76447 13.3685 8.90375 13.3698C8.64653 13.3677 8.39351 13.3049 8.16553 13.1866C8.31329 13.3899 8.50734 13.5555 8.73186 13.6702C8.95638 13.7848 9.20501 13.8451 9.45748 13.8462V13.8462ZM15.0569 7.31614V6.89473C14.5435 6.89493 14.0414 6.74451 13.6137 6.46236C13.9886 6.89503 14.4952 7.19473 15.0569 7.31614V7.31614Z" fill="#25F4EE"/>
<path d="M13.6136 6.4622C13.1923 5.98594 12.9601 5.37371 12.9603 4.73987H12.4508C12.5166 5.09031 12.6537 5.42377 12.8536 5.71989C13.0535 6.01601 13.3121 6.26858 13.6136 6.4622V6.4622ZM8.89997 10.1889C8.54268 10.1907 8.19627 10.3111 7.91578 10.5308C7.6353 10.7505 7.43686 11.057 7.352 11.4015C7.26713 11.7461 7.30073 12.1089 7.44744 12.4323C7.59415 12.7557 7.84556 13.0212 8.16169 13.1865C7.98885 12.9495 7.88534 12.6698 7.86261 12.3781C7.83988 12.0865 7.8988 11.7942 8.03287 11.5337C8.16694 11.2732 8.37094 11.0546 8.62233 10.902C8.87372 10.7494 9.16271 10.6687 9.45738 10.669C9.61757 10.671 9.77664 10.6958 9.9298 10.7425V8.81476C9.77339 8.79148 9.61552 8.77924 9.45738 8.77813H9.37244V10.2439C9.21847 10.2029 9.05931 10.1844 8.89997 10.1889V10.1889Z" fill="#FE2C55"/>
<path d="M15.0566 7.31616V8.78197C14.106 8.78013 13.1801 8.48142 12.41 7.92814V11.7795C12.4059 13.7013 10.8355 15.2571 8.8997 15.2571C8.18076 15.2584 7.47913 15.0381 6.8916 14.6268C7.37069 15.1384 7.99387 15.4948 8.67995 15.6498C9.36603 15.8048 10.0832 15.751 10.7381 15.4956C11.393 15.2401 11.9552 14.7948 12.3515 14.2176C12.7478 13.6405 12.9598 12.9582 12.96 12.2597V8.41921C13.7327 8.96884 14.6597 9.26366 15.6102 9.26203V7.37466C15.4241 7.37411 15.2386 7.35451 15.0566 7.31616V7.31616Z" fill="#FE2C55"/>
<path d="M12.4102 11.7793V7.92795C13.1826 8.47808 14.1098 8.77295 15.0604 8.77077V7.30502C14.4988 7.18727 13.991 6.89147 13.6135 6.4622C13.312 6.26858 13.0534 6.01601 12.8535 5.71989C12.6536 5.42377 12.5166 5.09031 12.4508 4.73987H11.0556V12.3254C11.042 12.6556 10.9252 12.9734 10.7213 13.2346C10.5174 13.4958 10.2366 13.6875 9.91794 13.783C9.59927 13.8785 9.25855 13.8731 8.94313 13.7675C8.62771 13.6619 8.35325 13.4614 8.15789 13.1939C7.84171 13.0286 7.59025 12.7632 7.4435 12.4397C7.29675 12.1163 7.26314 11.7535 7.348 11.4089C7.43287 11.0643 7.63134 10.7578 7.91187 10.538C8.19239 10.3183 8.53885 10.198 8.89617 10.1962C9.05642 10.1977 9.2156 10.2224 9.36864 10.2696V8.80375C8.68969 8.81518 8.02875 9.02248 7.46643 9.40037C6.9041 9.77827 6.46467 10.3104 6.20172 10.932C5.93877 11.5535 5.86366 12.2376 5.98555 12.9008C6.10744 13.5639 6.42106 14.1776 6.88817 14.6669C7.48147 15.0647 8.1841 15.2707 8.8999 15.2569C10.8357 15.2569 12.4061 13.7011 12.4102 11.7793V11.7793Z" fill="white" fill-opacity="0.95"/>
</svg>
