<svg width="21" height="20" viewBox="0 0 21 20" fill="none" xmlns="http://www.w3.org/2000/svg">
<path d="M2.5 4C2.5 3.73478 2.60536 3.48043 2.79289 3.29289C2.98043 3.10536 3.23478 3 3.5 3H5.5C5.76522 3 6.01957 3.10536 6.20711 3.29289C6.39464 3.48043 6.5 3.73478 6.5 4V16C6.5 16.2652 6.39464 16.5196 6.20711 16.7071C6.01957 16.8946 5.76522 17 5.5 17H3.5C3.23478 17 2.98043 16.8946 2.79289 16.7071C2.60536 16.5196 2.5 16.2652 2.5 16V4Z" fill="#757575"/>
<path d="M8.5 4C8.5 3.73478 8.60536 3.48043 8.79289 3.29289C8.98043 3.10536 9.23478 3 9.5 3H11.5C11.7652 3 12.0196 3.10536 12.2071 3.29289C12.3946 3.48043 12.5 3.73478 12.5 4V16C12.5 16.2652 12.3946 16.5196 12.2071 16.7071C12.0196 16.8946 11.7652 17 11.5 17H9.5C9.23478 17 8.98043 16.8946 8.79289 16.7071C8.60536 16.5196 8.5 16.2652 8.5 16V4Z" fill="#757575"/>
<path d="M15.5 3C15.2348 3 14.9804 3.10536 14.7929 3.29289C14.6054 3.48043 14.5 3.73478 14.5 4V16C14.5 16.2652 14.6054 16.5196 14.7929 16.7071C14.9804 16.8946 15.2348 17 15.5 17H17.5C17.7652 17 18.0196 16.8946 18.2071 16.7071C18.3946 16.5196 18.5 16.2652 18.5 16V4C18.5 3.73478 18.3946 3.48043 18.2071 3.29289C18.0196 3.10536 17.7652 3 17.5 3H15.5Z" fill="#757575"/>
</svg>
